<svg t="1583855980721" class="icon" viewBox="0 0 1110 1024" version="1.1" xmlns="http://www.w3.org/2000/svg" p-id="2477" width="128" height="128"><path d="M547.329087 111.53121C433.623779 129.793631 333.506582 193.712102 269.58811 289.154989c-59.244161 88.37707-81.746072 196.429724-62.940127 302.199576 26.197877 147.512527 133.054777 270.24034 276.545223 317.635669 23.915074 7.826752 57.830998 15.436093 80.224204 17.718896l7.283227 0.760934v-207.626327l-7.826752-1.847983c-61.309554-14.892569-113.814013-58.809342-139.57707-116.85775-19.566879-44.242887-22.719321-96.421231-8.478981-143.164331C435.036943 391.011465 488.302335 339.159236 556.569002 319.809766l14.131635-3.913375V108.704883l-3.478556 0.108705c-1.956688 0-10.870488 1.304459-19.892994 2.717622zM653.316348 212.300637v103.921868l4.67431 1.195754c73.701911 18.045011 130.337155 72.071338 151.317198 144.03397 13.696815 47.069214 9.34862 99.791083-12.066242 144.90361-16.631847 35.329087-45.764756 67.505732-79.24586 87.72484-3.587261 2.065393-6.848408 4.23949-7.391932 4.783015-0.978344 0.978344 19.240764 20.436518 41.63397 40.003397 40.655626 35.655202 81.311253 64.244586 115.98811 81.528663l14.349045 7.174522 8.261571-7.391932c11.305308-10.109554 30.002548-30.219958 41.525265-44.569002 46.30828-57.722293 75.876008-125.98896 86.637792-200.016985 6.522293-44.134183 4.67431-96.529936-4.67431-141.968578-12.935881-61.961783-41.199151-122.292994-80.441613-171.427601-56.852654-71.201699-134.250531-121.205945-221.757962-143.164331-14.457749-3.587261-38.372824-8.152866-52.504459-9.783439l-6.304883-0.760935v103.813164z" p-id="2478" fill="#00BCD4"></path><path d="M590.484926 396.229299c-25.980467 4.67431-47.395329 15.979618-66.092569 34.676858-16.197028 16.197028-26.741401 34.459448-32.828875 56.961359-2.500212 9.56603-2.826327 12.392357-2.826327 30.111253 0 17.718896 0.326115 20.545223 2.826327 30.111252 8.261571 30.437367 26.415287 55.87431 51.743524 72.614862 20.001699 13.261996 38.372824 19.240764 62.179194 20.219109 37.829299 1.630573 69.46242-10.979193 95.551592-38.155415 22.393206-23.262845 33.807219-51.960934 33.807219-84.789808 0-32.828875-11.522718-61.526964-34.133334-85.115924-18.69724-19.566879-39.785987-31.089597-66.201274-36.198726-12.392357-2.391507-31.959236-2.608917-44.025477-0.43482zM653.316348 843.984713c0 78.593631 0.108705 83.267941 1.956688 83.267941 4.022081 0 30.980892-4.4569 43.264544-7.065817 33.589809-7.174522 67.940552-19.349469 98.704034-35.002973 8.587686-4.348195 8.696391-4.348195 5.978768-5.978768-30.437367-19.132059-44.025478-28.589384-67.723142-46.96051-17.936306-13.914225-44.242887-36.524841-60.98344-52.178344-7.174522-6.739703-14.892569-13.80552-17.066666-15.762208l-4.130786-3.587261v83.26794z" p-id="2479" fill="#00BCD4"></path></svg>